<svg xmlns="http://www.w3.org/2000/svg" viewBox="0 0 58.41 26.23"><defs><style>.cls-1{fill:#fff;}</style></defs><title>battary@Vector</title><g id="Layer_2" data-name="Layer 2"><g id="Layer_1-2" data-name="Layer 1"><path class="cls-1" d="M2.81,25.73A2.34,2.34,0,0,1,.74,24.44a2.25,2.25,0,0,1-.24-1V2.82A2.32,2.32,0,0,1,2.81.5h48A2.32,2.32,0,0,1,53,2.18a2.8,2.8,0,0,1,.08.64V6.23h4.8V20H53.12v3.42a2.32,2.32,0,0,1-2.31,2.31Zm29.67-3.36H46.06a3.31,3.31,0,0,0,3.31-3.31V7.15a4.07,4.07,0,0,0,0-.5l-.15-1Zm-21.56,0H24.85L43.38,3.83H29.46Zm-3-18.54A3.32,3.32,0,0,0,4.57,7.15V19.06a3,3,0,0,0,.12.87l.23.81L21.82,3.83Z"/><path class="cls-1" d="M50.81,1a1.81,1.81,0,0,1,1.81,1.82V6.73h4.79V19.5H52.62v3.92a1.81,1.81,0,0,1-1.81,1.81h-48a1.83,1.83,0,0,1-1.62-1A1.78,1.78,0,0,1,1,23.42V2.82A1.82,1.82,0,0,1,2.81,1h48M9.71,22.87H25.06l.29-.29L42.89,5l1.7-1.71H29.25l-.29.3L11.42,21.17l-1.71,1.7m-5-1.18L5.87,20.5,21.32,5,23,3.33H7.88A3.83,3.83,0,0,0,4.07,7.16v11.9a3.62,3.62,0,0,0,.14,1l.47,1.62m26.6,1.18H46.06a3.82,3.82,0,0,0,3.81-3.81V7.16a3.57,3.57,0,0,0,0-.59l-.31-1.94L48.13,6,33,21.17l-1.7,1.7M50.81,0h-48A2.82,2.82,0,0,0,0,2.82v20.6a2.8,2.8,0,0,0,2.81,2.81h48a2.81,2.81,0,0,0,2.81-2.81V20.5h4.3a.49.49,0,0,0,.49-.49V6.22a.49.49,0,0,0-.49-.49h-4.3V2.82a3.18,3.18,0,0,0-.1-.77,2.81,2.81,0,0,0-2.71-2ZM12.13,21.87,29.66,4.33H42.18L24.64,21.87Zm-7-2.08a2.52,2.52,0,0,1-.1-.73V7.16A2.82,2.82,0,0,1,7.88,4.33H20.62L5.17,19.79Zm28.52,2.08L48.84,6.72a3.15,3.15,0,0,1,0,.44v11.9a2.81,2.81,0,0,1-2.81,2.81Z"/></g></g></svg>